<?xml version="1.0" encoding="UTF-8" standalone="no"?>
<!DOCTYPE svg PUBLIC "-//W3C//DTD SVG 1.1//EN" "http://www.w3.org/Graphics/SVG/1.1/DTD/svg11.dtd">
<svg width="100%" height="100%" viewBox="0 0 667 667" version="1.1" xmlns="http://www.w3.org/2000/svg" xmlns:xlink="http://www.w3.org/1999/xlink" xml:space="preserve" xmlns:serif="http://www.serif.com/" style="fill-rule:evenodd;clip-rule:evenodd;stroke-linejoin:round;stroke-miterlimit:2;">
    <g transform="matrix(1,0,0,1,-959.809754,-1929.021054)">
        <g id="a8i-blue" transform="matrix(4.166667,0,0,4.166667,959.809754,1929.021054)">
            <rect x="0" y="0" width="160" height="160" style="fill:none;"/>
            <g id="Layer-1" serif:id="Layer 1">
            </g>
            <g id="Layer-3" serif:id="Layer 3">
                <rect x="0" y="0" width="160" height="160" style="fill:rgb(14,29,41);"/>
                <g transform="matrix(1,0,0,1,57.753663,63.26)">
                    <path d="M-1.098,30.586L-17.249,30.586L-20.26,42.751L-30.774,42.751L-16.29,-9.271L-1.592,-9.271L3.781,10.073L-1.098,30.586ZM-15.238,22.465L-2.743,22.465L-6.026,8.797L-8.672,-2.33L-9.245,-2.33L-11.855,8.797L-15.238,22.465Z" style="fill:white;"/>
                </g>
                <g transform="matrix(1,0,0,1,-2.312173,0.007)">
                    <rect x="117.872" y="53.982" width="10.334" height="52.022" style="fill:white;"/>
                </g>
                <g transform="matrix(1,0,0,1,91.950958,85.5902)">
                    <path d="M0,-11.224C-1.068,-10.574 -2.414,-10.249 -4.038,-10.249C-5.756,-10.249 -7.16,-10.574 -8.252,-11.224C-9.319,-11.874 -10.108,-12.71 -10.619,-13.732C-11.106,-14.776 -11.35,-15.879 -11.35,-17.041C-11.35,-19.2 -10.677,-20.825 -9.33,-21.917C-7.984,-23.008 -6.22,-23.554 -4.038,-23.554C-1.95,-23.554 -0.221,-23.008 1.149,-21.917C2.518,-20.825 3.203,-19.2 3.203,-17.041C3.203,-15.903 2.936,-14.812 2.402,-13.767C1.868,-12.722 1.068,-11.874 0,-11.224M2.297,10.65C0.511,11.811 -1.602,12.391 -4.038,12.391C-6.545,12.391 -8.692,11.811 -10.48,10.65C-12.244,9.489 -13.125,7.712 -13.125,5.321C-13.125,2.581 -12.266,0.63 -10.549,-0.531C-8.832,-1.692 -6.661,-2.272 -4.038,-2.272C-1.463,-2.272 0.685,-1.669 2.402,-0.461C4.119,0.723 4.978,2.65 4.978,5.321C4.978,7.712 4.085,9.489 2.297,10.65M0.675,20.399L20.288,20.399L20.288,-31.623L-0.729,-31.6C3.115,-31.172 6.097,-29.953 8.216,-27.942C10.931,-25.388 12.289,-21.975 12.289,-17.702C12.289,-15.961 11.895,-14.277 11.106,-12.652C10.34,-11.05 9.214,-9.68 7.728,-8.542C6.266,-7.404 4.479,-6.684 2.367,-6.382C6.011,-6.104 8.889,-4.908 11.001,-2.795C13.113,-0.682 14.17,2.337 14.17,6.261C14.17,9.396 13.369,12.043 11.767,14.202C10.166,16.362 7.984,17.999 5.222,19.114C3.8,19.692 2.284,20.121 0.675,20.399M-8.811,20.399C-10.439,20.121 -11.97,19.692 -13.404,19.114C-16.143,17.999 -18.313,16.362 -19.914,14.202C-21.516,12.043 -22.317,9.396 -22.317,6.261C-22.317,2.244 -21.249,-0.798 -19.114,-2.864C-16.955,-4.931 -14.066,-6.127 -10.445,-6.452C-12.58,-6.754 -14.39,-7.474 -15.875,-8.611C-17.361,-9.749 -18.498,-11.119 -19.288,-12.722C-20.054,-14.324 -20.436,-15.984 -20.436,-17.702C-20.436,-22.021 -19.079,-25.446 -16.363,-27.977C-14.22,-29.957 -11.239,-31.163 -7.42,-31.594L-22.469,-31.581L-34.83,20.399L-8.811,20.399Z" style="fill:rgb(87,184,221);"/>
                </g>
            </g>
            <g id="Layer-8" serif:id="Layer 8">
            </g>
            <g id="Layer-14" serif:id="Layer 14">
            </g>
            <g id="Layer-12" serif:id="Layer 12">
            </g>
            <g id="Layer-7" serif:id="Layer 7">
            </g>
            <g id="Layer-2" serif:id="Layer 2">
            </g>
            <g id="Layer-5" serif:id="Layer 5">
            </g>
            <g id="Layer-4" serif:id="Layer 4">
            </g>
            <g id="Layer-9" serif:id="Layer 9">
            </g>
            <g id="Layer-10" serif:id="Layer 10">
            </g>
            <g id="Layer-6" serif:id="Layer 6">
            </g>
            <g id="Dimensions">
            </g>
        </g>
    </g>
</svg>
