<?xml version="1.0" encoding="UTF-8" standalone="no"?>
<!DOCTYPE svg PUBLIC "-//W3C//DTD SVG 1.1//EN" "http://www.w3.org/Graphics/SVG/1.1/DTD/svg11.dtd">
<svg width="100%" height="100%" viewBox="0 0 5000 2625" version="1.1" xmlns="http://www.w3.org/2000/svg" xmlns:xlink="http://www.w3.org/1999/xlink" xml:space="preserve" xmlns:serif="http://www.serif.com/" style="fill-rule:evenodd;clip-rule:evenodd;stroke-linejoin:round;stroke-miterlimit:2;">
    <g transform="matrix(1,0,0,1,-0,-3884.837873)">
        <g id="activ8insights-blue-banner" transform="matrix(4.166667,0,0,4.166667,0,3884.837873)">
            <rect x="0" y="0" width="1200" height="630" style="fill:none;"/>
            <g id="Layer-1" serif:id="Layer 1">
            </g>
            <g id="Layer-3" serif:id="Layer 3">
            </g>
            <g id="Layer-8" serif:id="Layer 8">
                <rect x="0" y="0" width="1200" height="630" style="fill:rgb(14,29,41);"/>
                <g transform="matrix(1.869705,0,0,1.869705,474.975133,325.70288)">
                    <path d="M0,-11.224C-1.068,-10.574 -2.414,-10.249 -4.038,-10.249C-5.756,-10.249 -7.16,-10.574 -8.252,-11.224C-9.319,-11.874 -10.108,-12.71 -10.619,-13.732C-11.106,-14.776 -11.35,-15.879 -11.35,-17.041C-11.35,-19.2 -10.677,-20.825 -9.33,-21.917C-7.984,-23.008 -6.22,-23.554 -4.038,-23.554C-1.95,-23.554 -0.221,-23.008 1.149,-21.917C2.518,-20.825 3.203,-19.2 3.203,-17.041C3.203,-15.903 2.936,-14.812 2.402,-13.767C1.868,-12.722 1.068,-11.874 0,-11.224M2.297,10.65C0.511,11.811 -1.602,12.391 -4.038,12.391C-6.545,12.391 -8.692,11.811 -10.48,10.65C-12.244,9.489 -13.125,7.712 -13.125,5.321C-13.125,2.581 -12.266,0.63 -10.549,-0.531C-8.832,-1.692 -6.661,-2.272 -4.038,-2.272C-1.463,-2.272 0.685,-1.669 2.402,-0.461C4.119,0.723 4.978,2.65 4.978,5.321C4.978,7.712 4.085,9.489 2.297,10.65M0.675,20.399L20.288,20.399L20.288,-31.623L-0.729,-31.6C3.115,-31.172 6.097,-29.953 8.216,-27.942C10.931,-25.388 12.289,-21.975 12.289,-17.702C12.289,-15.961 11.895,-14.277 11.106,-12.652C10.34,-11.05 9.214,-9.68 7.728,-8.542C6.266,-7.404 4.479,-6.684 2.367,-6.382C6.011,-6.104 8.889,-4.908 11.001,-2.795C13.113,-0.682 14.17,2.337 14.17,6.261C14.17,9.396 13.369,12.043 11.767,14.202C10.166,16.362 7.984,17.999 5.222,19.114C3.8,19.692 2.284,20.121 0.675,20.399M-8.811,20.399C-10.439,20.121 -11.97,19.692 -13.404,19.114C-16.143,17.999 -18.313,16.362 -19.914,14.202C-21.516,12.043 -22.317,9.396 -22.317,6.261C-22.317,2.244 -21.249,-0.798 -19.114,-2.864C-16.955,-4.931 -14.066,-6.127 -10.445,-6.452C-12.58,-6.754 -14.39,-7.474 -15.875,-8.611C-17.361,-9.749 -18.498,-11.119 -19.288,-12.722C-20.054,-14.324 -20.436,-15.984 -20.436,-17.702C-20.436,-22.021 -19.079,-25.446 -16.363,-27.977C-14.22,-29.957 -11.239,-31.163 -7.42,-31.594L-22.469,-31.581L-34.83,20.399L-8.811,20.399Z" style="fill:rgb(87,184,221);"/>
                </g>
                <g transform="matrix(1,0,0,1,-17.736705,-17.019)">
                    <g opacity="0.96">
                        <g transform="matrix(1,0,0,1,9.6,0)">
                            <rect x="543.169" y="283.785" width="19.254" height="96.92" style="fill:white;fill-rule:nonzero;"/>
                            <path d="M584.58,380.705L584.58,283.785L607.63,283.785L638.274,341.844L646.477,362.174L647.019,362.174L644.307,338.844L644.307,283.785L662.883,283.785L662.883,380.705L639.697,380.705L609.257,322.846L601.393,303.782L600.715,303.782L603.156,329.645L603.156,380.705L584.58,380.705Z" style="fill:white;fill-rule:nonzero;"/>
                            <path d="M716.969,382.038C709.602,382.038 703.071,380.894 697.376,378.605C691.681,376.317 687.241,372.806 684.054,368.073C680.868,363.341 679.32,357.33 679.41,350.043L697.85,350.043C697.941,353.509 698.721,356.431 700.189,358.808C701.658,361.185 703.85,362.974 706.766,364.174C709.681,365.374 713.308,365.974 717.647,365.974C721.488,365.974 724.629,365.563 727.07,364.741C729.511,363.918 731.319,362.708 732.494,361.108C733.669,359.508 734.256,357.597 734.256,355.375C734.256,352.931 733.511,350.876 732.019,349.209C730.528,347.543 728.177,345.988 724.968,344.543C721.76,343.099 717.579,341.51 712.426,339.777C706.551,337.733 701.41,335.367 697.003,332.678C692.596,329.99 689.195,326.723 686.8,322.88C684.404,319.036 683.207,314.425 683.207,309.048C683.207,300.294 686.201,293.639 692.19,289.084C698.178,284.529 706.347,282.252 716.697,282.252C723.793,282.252 729.646,283.34 734.256,285.518C738.866,287.695 742.38,290.917 744.798,295.183C747.217,299.449 748.719,304.715 749.307,310.981L731.07,310.981C730.844,308.226 730.155,305.904 729.002,304.015C727.85,302.127 726.245,300.705 724.189,299.749C722.132,298.794 719.567,298.316 716.494,298.316C711.794,298.316 708.178,299.16 705.647,300.849C703.116,302.538 701.85,305.115 701.85,308.581C701.85,310.848 702.348,312.836 703.342,314.547C704.336,316.258 706.178,317.902 708.867,319.48C711.556,321.058 715.455,322.802 720.562,324.713C724.855,326.357 728.968,327.934 732.9,329.445C736.833,330.956 740.324,332.723 743.375,334.745C746.426,336.767 748.821,339.277 750.561,342.277C752.301,345.277 753.194,349.109 753.239,353.775C753.284,363.063 750.12,370.095 743.748,374.873C737.375,379.65 728.449,382.038 716.969,382.038Z" style="fill:white;fill-rule:nonzero;"/>
                            <rect x="769.278" y="283.785" width="19.254" height="96.92" style="fill:white;fill-rule:nonzero;"/>
                            <path d="M852.452,382.038C843.367,382.038 835.367,380.039 828.452,376.039C821.537,372.04 816.125,366.285 812.215,358.775C808.306,351.265 806.351,342.244 806.351,331.712C806.351,321.313 808.261,312.403 812.08,304.982C815.899,297.561 821.21,291.873 828.012,287.918C834.814,283.962 842.667,281.985 851.57,281.985C857.898,281.985 863.785,283.163 869.231,285.518C874.677,287.873 879.163,291.395 882.688,296.083C886.214,300.771 888.248,306.648 888.79,313.714L870.146,313.714C869.83,312.07 869.22,310.415 868.316,308.748C867.412,307.082 866.203,305.548 864.689,304.149C863.175,302.749 861.322,301.627 859.13,300.782C856.938,299.938 854.373,299.516 851.435,299.516C847.503,299.516 843.955,300.227 840.791,301.649C837.627,303.071 834.927,305.171 832.69,307.948C830.452,310.726 828.735,314.125 827.537,318.147C826.339,322.168 825.741,326.779 825.741,331.978C825.741,338.866 826.758,344.732 828.791,349.576C830.825,354.42 833.853,358.119 837.876,360.674C841.898,363.23 846.847,364.507 852.723,364.507C855.073,364.507 857.446,364.307 859.841,363.907C862.237,363.507 864.485,362.919 866.587,362.141C868.689,361.363 870.463,360.374 871.909,359.175L871.909,344.377L853.265,344.377L853.265,328.445L889.875,328.445L889.807,369.107C884.564,372.973 878.892,376.095 872.79,378.472C866.689,380.85 859.909,382.038 852.452,382.038Z" style="fill:white;fill-rule:nonzero;"/>
                            <path d="M964.371,380.705L964.371,283.785L983.353,283.785L983.353,380.705L964.371,380.705ZM909.593,380.705L909.593,283.785L928.575,283.785L928.575,380.705L909.593,380.705ZM922.88,339.311L922.88,322.646L967.489,322.646L967.354,339.311L922.88,339.311Z" style="fill:white;fill-rule:nonzero;"/>
                            <path d="M1023.433,380.705L1023.433,307.848C1023.433,305.671 1023.839,304.038 1024.653,302.949C1025.466,301.86 1026.709,301.16 1028.382,300.849L998.687,300.849L998.687,283.785L1067.093,283.785L1067.093,300.849L1042.483,300.849L1042.483,380.705L1023.433,380.705Z" style="fill:white;fill-rule:nonzero;"/>
                            <path d="M1113.946,382.038C1106.578,382.038 1100.048,380.894 1094.353,378.605C1088.658,376.317 1084.217,372.806 1081.031,368.073C1077.845,363.341 1076.297,357.33 1076.387,350.043L1094.827,350.043C1094.918,353.509 1095.697,356.431 1097.166,358.808C1098.635,361.185 1100.827,362.974 1103.742,364.174C1106.658,365.374 1110.285,365.974 1114.623,365.974C1118.465,365.974 1121.606,365.563 1124.047,364.741C1126.488,363.918 1128.295,362.708 1129.471,361.108C1130.646,359.508 1131.233,357.597 1131.233,355.375C1131.233,352.931 1130.488,350.876 1128.996,349.209C1127.505,347.543 1125.154,345.988 1121.945,344.543C1118.736,343.099 1114.556,341.51 1109.403,339.777C1103.528,337.733 1098.387,335.367 1093.98,332.678C1089.573,329.99 1086.172,326.723 1083.777,322.88C1081.381,319.036 1080.184,314.425 1080.184,309.048C1080.184,300.294 1083.178,293.639 1089.166,289.084C1095.155,284.529 1103.324,282.252 1113.674,282.252C1120.77,282.252 1126.623,283.34 1131.233,285.518C1135.843,287.695 1139.357,290.917 1141.775,295.183C1144.193,299.449 1145.696,304.715 1146.284,310.981L1128.047,310.981C1127.821,308.226 1127.132,305.904 1125.979,304.015C1124.827,302.127 1123.222,300.705 1121.166,299.749C1119.109,298.794 1116.544,298.316 1113.471,298.316C1108.771,298.316 1105.155,299.16 1102.624,300.849C1100.093,302.538 1098.827,305.115 1098.827,308.581C1098.827,310.848 1099.324,312.836 1100.319,314.547C1101.313,316.258 1103.155,317.902 1105.844,319.48C1108.533,321.058 1112.431,322.802 1117.539,324.713C1121.832,326.357 1125.945,327.934 1129.877,329.445C1133.809,330.956 1137.301,332.723 1140.352,334.745C1143.402,336.767 1145.798,339.277 1147.538,342.277C1149.278,345.277 1150.171,349.109 1150.216,353.775C1150.261,363.063 1147.097,370.095 1140.725,374.873C1134.352,379.65 1125.425,382.038 1113.946,382.038Z" style="fill:white;fill-rule:nonzero;"/>
                        </g>
                    </g>
                </g>
                <g transform="matrix(1,0,0,1,-16.296705,-17.019)">
                    <g transform="matrix(1,0,0,1,74.2171,283.733)">
                        <path d="M0,96.973L32.133,0L60.539,0L92.672,96.973L71.789,96.973L62.508,66.627L73.547,74.297L23.063,74.297L26.156,59.157L68.906,59.157L62.437,66.427L52.313,33.681L46.688,12.939L45.774,12.939L40.219,33.681L20.812,96.973L0,96.973Z" style="fill:white;fill-rule:nonzero;"/>
                    </g>
                    <g transform="matrix(1,0,0,1,217.1633,281.9315)">
                        <path d="M0,100.175C-9.329,100.175 -17.45,98.219 -24.364,94.306C-31.279,90.394 -36.645,84.692 -40.465,77.199C-44.287,69.707 -46.195,60.626 -46.195,49.954C-46.195,39.683 -44.332,30.813 -40.605,23.343C-36.879,15.874 -31.535,10.116 -24.575,6.07C-17.614,2.024 -9.305,0 0.352,0C7.335,0 13.733,1.268 19.547,3.802C25.359,6.336 30.034,10.116 33.574,15.14C37.113,20.165 38.929,26.389 39.024,33.814L18.914,33.814C18.774,29.857 17.788,26.678 15.961,24.277C14.133,21.876 11.742,20.142 8.789,19.075C5.836,18.008 2.601,17.475 -0.914,17.475C-5.742,17.475 -10.043,18.675 -13.816,21.075C-17.59,23.477 -20.579,27.101 -22.782,31.947C-24.986,36.794 -26.086,42.885 -26.086,50.221C-26.086,58.003 -24.961,64.284 -22.712,69.062C-20.461,73.842 -17.414,77.31 -13.57,79.466C-9.727,81.624 -5.414,82.702 -0.633,82.702C3.867,82.702 7.547,82.068 10.406,80.8C13.265,79.534 15.398,77.789 16.804,75.565C18.21,73.342 18.96,70.808 19.055,67.962L39.164,67.962C39.024,74.588 37.3,80.311 33.996,85.135C30.691,89.96 26.132,93.673 20.32,96.273C14.508,98.874 7.734,100.175 0,100.175" style="fill:white;fill-rule:nonzero;"/>
                    </g>
                    <g transform="matrix(1,0,0,1,290.4984,283.733)">
                        <path d="M0,96.973L0,24.076C0,21.898 0.422,20.265 1.266,19.174C2.11,18.086 3.399,17.385 5.133,17.073L-25.663,17.073L-25.663,0L45.282,0L45.282,17.073L19.758,17.073L19.758,96.973L0,96.973Z" style="fill:white;fill-rule:nonzero;"/>
                    </g>
                    <g transform="matrix(1,0,0,1,-5.76,34.439)">
                        <rect x="355.11" y="249.294" width="19.969" height="96.973" style="fill:white;"/>
                    </g>
                    <g transform="matrix(1,0,0,1,411.436,283.733)">
                        <path d="M8.993,96.973L0,96.973L-29.954,0L-8.086,0L13.156,80.433L8.993,96.973Z" style="fill:white;"/>
                    </g>
                </g>
            </g>
            <g id="Layer-14" serif:id="Layer 14">
            </g>
            <g id="Layer-12" serif:id="Layer 12">
            </g>
            <g id="Layer-7" serif:id="Layer 7">
            </g>
            <g id="Layer-2" serif:id="Layer 2">
            </g>
            <g id="Layer-5" serif:id="Layer 5">
            </g>
            <g id="Layer-4" serif:id="Layer 4">
            </g>
            <g id="Layer-9" serif:id="Layer 9">
            </g>
            <g id="Layer-10" serif:id="Layer 10">
            </g>
            <g id="Layer-6" serif:id="Layer 6">
            </g>
            <g id="Dimensions">
            </g>
        </g>
    </g>
</svg>
