<?xml version="1.0" encoding="UTF-8" standalone="no"?>
<!DOCTYPE svg PUBLIC "-//W3C//DTD SVG 1.1//EN" "http://www.w3.org/Graphics/SVG/1.1/DTD/svg11.dtd">
<svg width="100%" height="100%" viewBox="0 0 200 200" version="1.1" xmlns="http://www.w3.org/2000/svg" xmlns:xlink="http://www.w3.org/1999/xlink" xml:space="preserve" xmlns:serif="http://www.serif.com/" style="fill-rule:evenodd;clip-rule:evenodd;stroke-linejoin:round;stroke-miterlimit:2;">
    <g transform="matrix(1,0,0,1,-0,-1.722875)">
        <g id="favicon" transform="matrix(4.166667,0,0,4.166667,0,1.722875)">
            <rect x="0" y="0" width="48" height="48" style="fill:none;"/>
            <clipPath id="_clip1">
                <rect x="0" y="0" width="48" height="48"/>
            </clipPath>
            <g clip-path="url(#_clip1)">
                <g id="Layer-1" serif:id="Layer 1">
                </g>
                <g id="Layer-3" serif:id="Layer 3">
                </g>
                <g id="Layer-8" serif:id="Layer 8">
                </g>
                <g id="Layer-14" serif:id="Layer 14">
                </g>
                <g id="Layer-12" serif:id="Layer 12">
                </g>
                <g id="Layer-7" serif:id="Layer 7">
                </g>
                <g id="Layer-2" serif:id="Layer 2">
                </g>
                <g id="Layer-5" serif:id="Layer 5">
                </g>
                <g id="Layer-4" serif:id="Layer 4">
                </g>
                <g id="Layer-9" serif:id="Layer 9">
                </g>
                <g id="Layer-10" serif:id="Layer 10">
                </g>
                <g id="Layer-6" serif:id="Layer 6">
                    <g transform="matrix(1,0,0,1,9.3225,6.0079)">
                        <path d="M0,35.984C-1.497,34.019 -2.247,31.623 -2.247,28.797C-2.247,25.121 -1.254,22.333 0.734,20.43C2.72,18.529 5.285,17.44 8.431,17.163C6.603,16.866 5.014,16.202 3.665,15.172C2.316,14.141 1.281,12.888 0.559,11.411C-0.165,9.934 -0.526,8.388 -0.526,6.773C-0.526,2.863 0.749,-0.244 3.299,-2.55C5.849,-4.855 9.642,-6.008 14.678,-6.008L-9.322,-6.008L-9.322,41.992L14.678,41.992C11.512,41.992 8.649,41.483 6.087,40.463C3.527,39.442 1.499,37.95 0,35.984" style="fill:rgb(87,184,221);"/>
                    </g>
                    <g transform="matrix(1,0,0,1,20.5586,9.2437)">
                        <path d="M0,9.306C0.87,9.837 2.018,10.103 3.442,10.103C4.822,10.103 5.954,9.837 6.837,9.306C7.717,8.775 8.366,8.095 8.78,7.266C9.194,6.438 9.402,5.567 9.402,4.653C9.402,2.825 8.845,1.46 7.729,0.557C6.614,-0.346 5.183,-0.797 3.442,-0.797C1.657,-0.797 0.216,-0.346 -0.877,0.557C-1.972,1.46 -2.519,2.825 -2.519,4.653C-2.519,5.567 -2.316,6.438 -1.913,7.266C-1.509,8.095 -0.872,8.775 0,9.306" style="fill:rgb(87,184,221);"/>
                    </g>
                    <g transform="matrix(1,0,0,1,24.0007,48)">
                        <path d="M0,-48C5.077,-48 8.881,-46.837 11.41,-44.51C13.939,-42.183 15.203,-39.086 15.203,-35.219C15.203,-33.604 14.842,-32.053 14.12,-30.566C13.396,-29.078 12.37,-27.813 11.044,-26.773C9.715,-25.731 8.138,-25.062 6.31,-24.765C9.412,-24.51 11.957,-23.426 13.944,-21.514C15.93,-19.601 16.923,-16.829 16.923,-13.195C16.923,-10.369 16.169,-7.973 14.661,-6.008C13.152,-4.042 11.117,-2.55 8.557,-1.529C5.997,-0.509 3.144,0 0,0L23.999,0L23.999,-48L0,-48Z" style="fill:rgb(87,184,221);"/>
                    </g>
                    <g transform="matrix(1,0,0,1,29.4033,37.9283)">
                        <path d="M0,-9.052C-1.414,-10.029 -3.216,-10.518 -5.403,-10.518C-7.591,-10.518 -9.393,-10.04 -10.805,-9.084C-12.219,-8.127 -12.926,-6.565 -12.926,-4.398C-12.926,-2.422 -12.187,-0.951 -10.71,0.016C-9.233,0.983 -7.465,1.466 -5.403,1.466C-3.342,1.466 -1.574,0.983 -0.097,0.016C1.38,-0.951 2.119,-2.422 2.119,-4.398C2.119,-6.523 1.412,-8.074 0,-9.052" style="fill:rgb(87,184,221);"/>
                    </g>
                </g>
                <g id="Dimensions">
                </g>
            </g>
        </g>
    </g>
</svg>
